# xmcd CD database file
#
# Track frame offsets:
#	150
#	19527
#	46443
#	69905
#
# Disc length: 1308 seconds
#
# Revision: 2
# Processed by: cddbd v1.5.2PL0 Copyright (c) Steve Scherf et al.
# Submitted via: CDex 1.70beta2
#
DISCID=28051a04
DTITLE=BRUCE SPRINGSTEEN - Waitin' On A Sunny Day(Single)
DYEAR=2003
DGENRE=Blues Rock
TTITLE0=Waitin' On A Sunny Day
TTITLE1=Born To Run
TTITLE2=Darkness On The Edge Of Town
TTITLE3=Thunder Road
EXTD=YEAR: 2003
EXTT0=
EXTT1=
EXTT2=
EXTT3=
PLAYORDER=
